/* XPM */
static char * spaceshooter_xpm[] = {
"60 60 15 1",
" 	c None",
".	c #FF0000",
"+	c #FFFFFF",
"@	c #848C73",
"#	c #840000",
"$	c #A5AD94",
"%	c #5A5A52",
"&	c #0F7AF0",
"*	c #06BCF9",
"=	c #000000",
"-	c #FFFF00",
";	c #313129",
">	c #0084FF",
",	c #0042BD",
"'	c #848400",
"                                                            ",
"                                                            ",
"                 .++@                                       ",
"                 #..@$$@                                    ",
"                 #..@$$@                                    ",
"                  ##.@@$@@                                  ",
"                  ##.%%@@@%                                 ",
"                  ##.%%@@@%                                 ",
"      &&&&&         #..%%%%%%                               ",
"     &*****&     .  $$$$$$$$$$@@                            ",
"     &*****&     .  $$$$$$$$$$@@                            ",
"   &&***+***&& +++%%@===@@@@@@%%$$$$$$...                   ",
"  &***+++++*&& ...%%@==-==@@@@%%@@@@@@%+++                  ",
"  &***+++++*&& ...%%@==-==@@@@%%@@@@@@%+++                  ",
"  &**++++++*&& ...%%@===--=@@@%%@@@@@@%...                  ",
"  &**++++++*&& ...%%@==-==@@@@%%@@@@@@%...                  ",
"  &**++++++*&& ...%%@==-==@@@@%%@@@@@@%...                  ",
"  &***+++++*&& ...%%@===@@@@@@;;%%%%%%;###                  ",
"   &&***+***&& ###;;%%%%%%%%%%;;;;;;;;###                   ",
"   &&***+***&& ###;;%%%%%%%%%%;;;;;;;;###                   ",
"     &*****&     #  ;;;;;;;;;;.....+%%                      ",
"      &&&&&       $$###..........++%@@%%%                   ",
"      &&&&&       $$###..........++%@@%%%                   ",
"                 $$$$$$$$$$$$$$$%%%$@@@@@%%%%%%%            ",
"                 %@@@@@@@@@%%%%%@%%@$$$@@@%%%@@@%%%%%%%%    ",
"                 %@@@@@@@@@%%%%%@%%@$$$@@@%%%@@@%%%%%%%%    ",
"                 %@@$@@%%%%$$@$$%@@@@@$$$%@@@@@$$$@@@@@@.%% ",
"                 %$$@%%$@@$@@$$$%@@@@@@@@%@@@$$%>>>>>%%%.++%",
"                 %$$@%%$@@$@@$$$%@@@@@@@@%@@@$$%>>>>>%%%.++%",
"         ..$$$$$$$@@%@@%@@@%%@@@%@@@@@@%%@@@$%%>>>>>>>>>...$",
"        #;;@@@@@@@;;############%%%%%%%%%%%%@++>>>>+++%%#..%",
"        #;;@@@@@@@;;############%%%%%%%%%%%%@++>>>>+++%%#..%",
"         ##;;;;;;;%%;%%;%%%;;%%%;%%%%%%;;%%%@;;,,,,,,,,,###%",
"                 ;%%%;;%;;%;;%%%;%%%%%%%%;%%%@@;,,,,,;;;###;",
"                 ;%%%;;%;;%;;%%%;%%%%%%%%;%%%@@;,,,,,;;;###;",
"                 ;%%%%%;;;;%%;%%;%%%%%%%%;%%%%%@@@%%%%%%#;; ",
"                 ;%%%%%%%%%;;;;;%;;%%%%%%%;;;%%%;;;;;;;;    ",
"                 ;%%%%%%%%%;;;;;%;;%%%%%%%;;;%%%;;;;;;;;    ",
"                 ;%%%%%%%%%%%%%%;;;%%%%%%;;;;;;;            ",
"      &&&&&       ;;#############..;%%;;;                   ",
"      &&&&&       ;;#############..;%%;;;                   ",
"     &*****&     .  @@@@@@@@@@#####.;;                      ",
"   &&***+***&& ...;;%===%%%%%%%%@@@@@@...                   ",
"   &&***+***&& ...;;%===%%%%%%%%@@@@@@...                   ",
"  &***+++++*&& ###;;%=='==%%%%;;%%%%%%;###                  ",
"  &**++++++*&& ###;;%===''=%%%;;%%%%%%;###                  ",
"  &**++++++*&& ###;;%===''=%%%;;%%%%%%;###                  ",
"  &**++++++*&& ###;;%=='==%%%%;;%%%%%%;###                  ",
"   &&***+***&& ###;;;;;;;;;;;;;;;;;;;;###                   ",
"   &&***+***&& ###;;;;;;;;;;;;;;;;;;;;###                   ",
"     &*****&     #  ;;;;;;;;;;;;                            ",
"      &&&&&         #;;;;;;;;                               ",
"      &&&&&         #;;;;;;;;                               ",
"                  ###%%%%%;                                 ",
"                  ###%%;;;                                  ",
"                  ###%%;;;                                  ",
"                 ###%;;                                     ",
"                 ###;                                       ",
"                 ###;                                       ",
"                                                            "};
