/* XPM */
static char * spaceship_xpm[] = {
"43 48 15 1",
" 	c None",
".	c #552233",
"+	c #000000",
"@	c #994433",
"#	c #CC9988",
"$	c #FF0088",
"%	c #BB6644",
"&	c #334499",
"*	c #77AADD",
"=	c #773333",
"-	c #EECCBB",
";	c #883333",
">	c #884433",
",	c #332255",
"'	c #880000",
"           ......+                         ",
"          .+@@@@#.+                        ",
"          .++@@@@#.+                       ",
"          .++@#@+@#.+                      ",
"          .++@#@++@#.+                     ",
"          .++@#@+$+@#.+%%                  ",
"          .++@#@$ $+@#.+#%&&&&&&&&&&       ",
"          .++@#@@$@@@##.++%**********      ",
"          .@@@##########.+#%  &&&&&  *     ",
"         =###=%=@@@#--    #%*********      ",
"         =#     @..@@##-- #%&&&&&&&        ",
"        ==------+...#--## @++;;#@@         ",
"        ==######+...##---@.+@##;##@        ",
"        ==#&&.....&&@+@+@....&-;;#@        ",
"        ==@@......+@@#++..@..>-#--@+       ",
"        #=@@.....+@...-++@..++++@@.+       ",
"        #=,@@@...+#...#+.+++++@@++'+.      ",
"        -=@,@..**+@...#+..+++@;;;@++@.     ",
"        -=@,,.**&.+@##@@..++;;;##@++#@.    ",
"        -=@@,*&......@#@@++@;##.++++@@#.   ",
"        -=@.*&..@@@@@.###+>>#-..+@@+@+@#.  ",
"        #=@*&.@@@@#-#@@++#-#>--@+@@++&&@#. ",
"        #=@*&@--#@--##@+#--  >##+##+&***...",
"        #=#&@-##-#-#@@@+@#--->-#+--@&*++##@",
"        #=#&@-##-#-#@@@+@#--->-#+--@&*++##@",
"        #=@*&@--#@--##@+#--  >##+##+&***...",
"        #=@*&.@@@@#-#@@++#-#>--@+@@++&&@#. ",
"        -=@.*&..@@@@@.###+>>#-..+@@+@+@#.  ",
"        -=@@,*&......@#@@++@;##.++++@@#.   ",
"        -=@,,.**&.+@##@@..++;;;##@++#@.    ",
"        -=@,@..**+@...#+..+++@;;;@++@.     ",
"        #=,@@@...+#...#+.+++++@@++'+.      ",
"        #=@@.....+@...-++@..++++@@.+       ",
"        ==@@......+@@#++..@..>-#--@+       ",
"        ==#&&.....&&@+@+@....&-;;#@        ",
"        ==######+...##---@.+@##;##@        ",
"        ==------+...#--## @++;;#@@         ",
"         =#     @..@@##-- #%&&&&&&&        ",
"         =###=%=@@@#--    #%*********      ",
"          .@@@##########.+#%  &&&&&  *     ",
"          .++@#@@$@@@##.++%**********      ",
"          .++@#@$ $+@#.+#%&&&&&&&&&&       ",
"          .++@#@+$+@#.+%%                  ",
"          .++@#@++@#.+                     ",
"          .++@#@+@#.+                      ",
"          .++@@@@#.+                       ",
"          .+@@@@#.+                        ",
"           ......+                         "};
